<svg xmlns="http://www.w3.org/2000/svg" viewBox="0 0 200 200" width="200" height="200">
  <rect width="200" height="200" fill="#1a2332"/>
  <rect x="55" y="25" width="90" height="150" rx="4" fill="#1a5c2a" stroke="#2d8a3e" stroke-width="1.5"/>
  <rect x="68" y="70" width="64" height="55" rx="3" fill="#222" stroke="#444" stroke-width="1"/>
  <text x="100" y="95" font-family="monospace" font-size="7" fill="#06b6d4" text-anchor="middle">ATmega</text>
  <text x="100" y="105" font-family="monospace" font-size="7" fill="#06b6d4" text-anchor="middle">328P</text>
  <rect x="55" y="40" width="90" height="8" rx="2" fill="#111" stroke="#333" stroke-width="1"/>
  <line x1="65" y1="40" x2="65" y2="48" stroke="#888" stroke-width="1.5"/>
  <line x1="73" y1="40" x2="73" y2="48" stroke="#888" stroke-width="1.5"/>
  <line x1="81" y1="40" x2="81" y2="48" stroke="#888" stroke-width="1.5"/>
  <line x1="89" y1="40" x2="89" y2="48" stroke="#888" stroke-width="1.5"/>
  <line x1="97" y1="40" x2="97" y2="48" stroke="#888" stroke-width="1.5"/>
  <line x1="105" y1="40" x2="105" y2="48" stroke="#888" stroke-width="1.5"/>
  <line x1="113" y1="40" x2="113" y2="48" stroke="#888" stroke-width="1.5"/>
  <line x1="121" y1="40" x2="121" y2="48" stroke="#888" stroke-width="1.5"/>
  <rect x="55" y="152" width="90" height="8" rx="2" fill="#111" stroke="#333" stroke-width="1"/>
  <line x1="65" y1="152" x2="65" y2="160" stroke="#888" stroke-width="1.5"/>
  <line x1="73" y1="152" x2="73" y2="160" stroke="#888" stroke-width="1.5"/>
  <line x1="81" y1="152" x2="81" y2="160" stroke="#888" stroke-width="1.5"/>
  <line x1="89" y1="152" x2="89" y2="160" stroke="#888" stroke-width="1.5"/>
  <line x1="97" y1="152" x2="97" y2="160" stroke="#888" stroke-width="1.5"/>
  <line x1="105" y1="152" x2="105" y2="160" stroke="#888" stroke-width="1.5"/>
  <rect x="78" y="25" width="44" height="14" rx="3" fill="#555" stroke="#777" stroke-width="1"/>
  <rect x="82" y="28" width="36" height="8" rx="2" fill="#333"/>
  <circle cx="130" cy="55" r="3" fill="#22c55e" opacity="0.9"/>
  <text x="100" y="190" font-family="Arial,sans-serif" font-size="11" fill="#22c55e" text-anchor="middle" font-weight="bold">Arduino Nano</text>
</svg>
