<svg xmlns="http://www.w3.org/2000/svg" viewBox="0 0 200 200" width="200" height="200">
  <rect width="200" height="200" fill="#1a2332"/>
  <rect x="40" y="20" width="120" height="160" rx="4" fill="#1a3a5c" stroke="#0891b2" stroke-width="1.5"/>
  <rect x="52" y="35" width="96" height="55" rx="3" fill="#c0c0c0" stroke="#999" stroke-width="1"/>
  <rect x="57" y="40" width="86" height="45" rx="2" fill="#888"/>
  <rect x="68" y="48" width="64" height="30" rx="2" fill="#222" stroke="#444" stroke-width="1"/>
  <text x="100" y="62" font-family="monospace" font-size="7" fill="#06b6d4" text-anchor="middle">ESP8266</text>
  <text x="100" y="72" font-family="monospace" font-size="6" fill="#94a3b8" text-anchor="middle">NodeMCU V3</text>
  <rect x="130" y="37" width="16" height="3" rx="1" fill="#c0c0c0"/>
  <rect x="33" y="45" width="20" height="55" rx="2" fill="#111" stroke="#333" stroke-width="1"/>
  <line x1="33" y1="53" x2="52" y2="53" stroke="#888" stroke-width="1.5"/>
  <line x1="33" y1="61" x2="52" y2="61" stroke="#888" stroke-width="1.5"/>
  <line x1="33" y1="69" x2="52" y2="69" stroke="#888" stroke-width="1.5"/>
  <line x1="33" y1="77" x2="52" y2="77" stroke="#888" stroke-width="1.5"/>
  <line x1="33" y1="85" x2="52" y2="85" stroke="#888" stroke-width="1.5"/>
  <rect x="147" y="45" width="20" height="55" rx="2" fill="#111" stroke="#333" stroke-width="1"/>
  <line x1="147" y1="53" x2="167" y2="53" stroke="#888" stroke-width="1.5"/>
  <line x1="147" y1="61" x2="167" y2="61" stroke="#888" stroke-width="1.5"/>
  <line x1="147" y1="69" x2="167" y2="69" stroke="#888" stroke-width="1.5"/>
  <line x1="147" y1="77" x2="167" y2="77" stroke="#888" stroke-width="1.5"/>
  <line x1="147" y1="85" x2="167" y2="85" stroke="#888" stroke-width="1.5"/>
  <rect x="75" y="148" width="50" height="18" rx="3" fill="#555" stroke="#777" stroke-width="1"/>
  <rect x="80" y="152" width="40" height="10" rx="2" fill="#333"/>
  <circle cx="155" cy="130" r="4" fill="#06b6d4" opacity="0.9"/>
  <text x="100" y="190" font-family="Arial,sans-serif" font-size="10" fill="#06b6d4" text-anchor="middle" font-weight="bold">ESP8266 NodeMCU</text>
</svg>
