<svg xmlns="http://www.w3.org/2000/svg" viewBox="0 0 200 200" width="200" height="200">
  <rect width="200" height="200" fill="#1a2332"/>
  <rect x="20" y="55" width="160" height="90" rx="6" fill="#1a3a5c" stroke="#0891b2" stroke-width="2"/>
  <circle cx="60" cy="100" r="28" fill="#0f2744" stroke="#0891b2" stroke-width="2"/>
  <circle cx="60" cy="100" r="20" fill="#1e3a5f" stroke="#1d4ed8" stroke-width="1.5"/>
  <circle cx="60" cy="100" r="12" fill="#0f2744" stroke="#2563eb" stroke-width="1"/>
  <circle cx="60" cy="100" r="5" fill="#06b6d4"/>
  <circle cx="140" cy="100" r="28" fill="#0f2744" stroke="#0891b2" stroke-width="2"/>
  <circle cx="140" cy="100" r="20" fill="#1e3a5f" stroke="#1d4ed8" stroke-width="1.5"/>
  <circle cx="140" cy="100" r="12" fill="#0f2744" stroke="#2563eb" stroke-width="1"/>
  <circle cx="140" cy="100" r="5" fill="#06b6d4"/>
  <text x="100" y="72" font-family="monospace" font-size="8" fill="#06b6d4" text-anchor="middle">HC-SR04</text>
  <line x1="50" y1="145" x2="50" y2="165" stroke="#888" stroke-width="3"/>
  <line x1="67" y1="145" x2="67" y2="165" stroke="#888" stroke-width="3"/>
  <line x1="133" y1="145" x2="133" y2="165" stroke="#888" stroke-width="3"/>
  <line x1="150" y1="145" x2="150" y2="165" stroke="#888" stroke-width="3"/>
  <text x="50" y="178" font-family="monospace" font-size="7" fill="#94a3b8" text-anchor="middle">VCC</text>
  <text x="67" y="178" font-family="monospace" font-size="7" fill="#94a3b8" text-anchor="middle">TRG</text>
  <text x="133" y="178" font-family="monospace" font-size="7" fill="#94a3b8" text-anchor="middle">ECH</text>
  <text x="150" y="178" font-family="monospace" font-size="7" fill="#94a3b8" text-anchor="middle">GND</text>
  <text x="100" y="192" font-family="Arial,sans-serif" font-size="10" fill="#06b6d4" text-anchor="middle" font-weight="bold">HC-SR04 Ultrasonic</text>
</svg>
