<svg xmlns="http://www.w3.org/2000/svg" viewBox="0 0 200 200" width="200" height="200">
  <rect width="200" height="200" fill="#1a2332"/>
  <rect x="40" y="35" width="120" height="120" rx="5" fill="#1a3a5c" stroke="#2563eb" stroke-width="2"/>
  <rect x="52" y="48" width="96" height="55" rx="3" fill="#1e3a5f" stroke="#3b82f6" stroke-width="1"/>
  <rect x="58" y="54" width="84" height="43" rx="2" fill="#0f2744"/>
  <text x="100" y="74" font-family="monospace" font-size="9" fill="#3b82f6" text-anchor="middle" font-weight="bold">HC-05</text>
  <text x="100" y="86" font-family="monospace" font-size="7" fill="#94a3b8" text-anchor="middle">Bluetooth 2.0</text>
  <text x="100" y="96" font-family="monospace" font-size="6" fill="#60a5fa" text-anchor="middle">Master/Slave</text>
  <path d="M 108 42 L 112 38 L 112 46 L 108 42 L 116 36 L 116 48 Z" fill="#3b82f6" opacity="0.8"/>
  <rect x="40" y="140" width="120" height="8" rx="2" fill="#111" stroke="#333" stroke-width="1"/>
  <line x1="55" y1="140" x2="55" y2="148" stroke="#ef4444" stroke-width="2"/>
  <line x1="70" y1="140" x2="70" y2="148" stroke="#888" stroke-width="2"/>
  <line x1="85" y1="140" x2="85" y2="148" stroke="#22c55e" stroke-width="2"/>
  <line x1="100" y1="140" x2="100" y2="148" stroke="#f97316" stroke-width="2"/>
  <line x1="115" y1="140" x2="115" y2="148" stroke="#888" stroke-width="2"/>
  <line x1="130" y1="140" x2="130" y2="148" stroke="#888" stroke-width="2"/>
  <text x="55" y="162" font-family="monospace" font-size="6" fill="#ef4444" text-anchor="middle">VCC</text>
  <text x="70" y="162" font-family="monospace" font-size="6" fill="#94a3b8" text-anchor="middle">GND</text>
  <text x="85" y="162" font-family="monospace" font-size="6" fill="#22c55e" text-anchor="middle">TXD</text>
  <text x="100" y="162" font-family="monospace" font-size="6" fill="#f97316" text-anchor="middle">RXD</text>
  <text x="115" y="162" font-family="monospace" font-size="6" fill="#94a3b8" text-anchor="middle">KEY</text>
  <text x="130" y="162" font-family="monospace" font-size="6" fill="#94a3b8" text-anchor="middle">STA</text>
  <text x="100" y="192" font-family="Arial,sans-serif" font-size="10" fill="#3b82f6" text-anchor="middle" font-weight="bold">HC-05 Bluetooth</text>
</svg>
