<svg xmlns="http://www.w3.org/2000/svg" viewBox="0 0 200 200" width="200" height="200">
  <rect width="200" height="200" fill="#1a2332"/>
  <rect x="25" y="35" width="150" height="130" rx="5" fill="#1a3a5c" stroke="#7c3aed" stroke-width="2"/>
  <rect x="70" y="60" width="60" height="60" rx="3" fill="#222" stroke="#444" stroke-width="1.5"/>
  <text x="100" y="88" font-family="monospace" font-size="8" fill="#a78bfa" text-anchor="middle">L298N</text>
  <text x="100" y="100" font-family="monospace" font-size="6" fill="#94a3b8" text-anchor="middle">H-Bridge</text>
  <rect x="25" y="50" width="20" height="40" rx="2" fill="#111" stroke="#333" stroke-width="1"/>
  <line x1="25" y1="58" x2="45" y2="58" stroke="#ef4444" stroke-width="2"/>
  <line x1="25" y1="68" x2="45" y2="68" stroke="#888" stroke-width="2"/>
  <line x1="25" y1="78" x2="45" y2="78" stroke="#888" stroke-width="2"/>
  <line x1="25" y1="88" x2="45" y2="88" stroke="#1d4ed8" stroke-width="2"/>
  <rect x="155" y="50" width="20" height="40" rx="2" fill="#111" stroke="#333" stroke-width="1"/>
  <line x1="155" y1="58" x2="175" y2="58" stroke="#f97316" stroke-width="2"/>
  <line x1="155" y1="68" x2="175" y2="68" stroke="#f97316" stroke-width="2"/>
  <line x1="155" y1="78" x2="175" y2="78" stroke="#22c55e" stroke-width="2"/>
  <line x1="155" y1="88" x2="175" y2="88" stroke="#22c55e" stroke-width="2"/>
  <rect x="40" y="140" width="120" height="12" rx="2" fill="#111" stroke="#333" stroke-width="1"/>
  <line x1="55" y1="140" x2="55" y2="152" stroke="#888" stroke-width="2"/>
  <line x1="70" y1="140" x2="70" y2="152" stroke="#888" stroke-width="2"/>
  <line x1="85" y1="140" x2="85" y2="152" stroke="#888" stroke-width="2"/>
  <line x1="100" y1="140" x2="100" y2="152" stroke="#888" stroke-width="2"/>
  <line x1="115" y1="140" x2="115" y2="152" stroke="#888" stroke-width="2"/>
  <line x1="130" y1="140" x2="130" y2="152" stroke="#888" stroke-width="2"/>
  <circle cx="100" cy="50" r="8" fill="#333" stroke="#555" stroke-width="1"/>
  <text x="100" y="192" font-family="Arial,sans-serif" font-size="10" fill="#a78bfa" text-anchor="middle" font-weight="bold">L298N Motor Driver</text>
</svg>
