<svg xmlns="http://www.w3.org/2000/svg" viewBox="0 0 200 200" width="200" height="200">
  <rect width="200" height="200" fill="#1a2332"/>
  <rect x="45" y="40" width="110" height="100" rx="5" fill="#1a3a5c" stroke="#0891b2" stroke-width="2"/>
  <rect x="65" y="60" width="70" height="55" rx="3" fill="#222" stroke="#444" stroke-width="1.5"/>
  <text x="100" y="85" font-family="monospace" font-size="8" fill="#06b6d4" text-anchor="middle">MPU-6050</text>
  <text x="100" y="97" font-family="monospace" font-size="6" fill="#94a3b8" text-anchor="middle">6-axis IMU</text>
  <text x="100" y="107" font-family="monospace" font-size="6" fill="#94a3b8" text-anchor="middle">Gyro+Accel</text>
  <rect x="45" y="140" width="110" height="8" rx="2" fill="#111" stroke="#333" stroke-width="1"/>
  <line x1="58" y1="140" x2="58" y2="148" stroke="#888" stroke-width="2"/>
  <line x1="72" y1="140" x2="72" y2="148" stroke="#888" stroke-width="2"/>
  <line x1="86" y1="140" x2="86" y2="148" stroke="#888" stroke-width="2"/>
  <line x1="100" y1="140" x2="100" y2="148" stroke="#888" stroke-width="2"/>
  <line x1="114" y1="140" x2="114" y2="148" stroke="#888" stroke-width="2"/>
  <line x1="128" y1="140" x2="128" y2="148" stroke="#888" stroke-width="2"/>
  <line x1="142" y1="140" x2="142" y2="148" stroke="#888" stroke-width="2"/>
  <text x="58" y="162" font-family="monospace" font-size="6" fill="#94a3b8" text-anchor="middle">VCC</text>
  <text x="72" y="162" font-family="monospace" font-size="6" fill="#94a3b8" text-anchor="middle">GND</text>
  <text x="86" y="162" font-family="monospace" font-size="6" fill="#94a3b8" text-anchor="middle">SCL</text>
  <text x="100" y="162" font-family="monospace" font-size="6" fill="#94a3b8" text-anchor="middle">SDA</text>
  <text x="114" y="162" font-family="monospace" font-size="6" fill="#94a3b8" text-anchor="middle">XDA</text>
  <text x="128" y="162" font-family="monospace" font-size="6" fill="#94a3b8" text-anchor="middle">XCL</text>
  <text x="142" y="162" font-family="monospace" font-size="6" fill="#94a3b8" text-anchor="middle">INT</text>
  <text x="100" y="192" font-family="Arial,sans-serif" font-size="10" fill="#06b6d4" text-anchor="middle" font-weight="bold">MPU-6050 IMU</text>
</svg>
