<svg xmlns="http://www.w3.org/2000/svg" viewBox="0 0 200 200" width="200" height="200">
  <rect width="200" height="200" fill="#1a2332"/>
  <rect x="55" y="20" width="90" height="155" rx="10" fill="#1a1a2e" stroke="#7c3aed" stroke-width="2"/>
  <rect x="65" y="30" width="70" height="45" rx="4" fill="#0a0a1a" stroke="#4c1d95" stroke-width="1"/>
  <text x="100" y="52" font-family="monospace" font-size="14" fill="#22c55e" text-anchor="middle" font-weight="bold">12.5V</text>
  <text x="100" y="65" font-family="monospace" font-size="7" fill="#94a3b8" text-anchor="middle">DC VOLTAGE</text>
  <circle cx="100" cy="105" r="22" fill="#111" stroke="#7c3aed" stroke-width="2"/>
  <line x1="100" y1="83" x2="100" y2="90" stroke="#7c3aed" stroke-width="2"/>
  <line x1="100" y1="120" x2="100" y2="127" stroke="#7c3aed" stroke-width="2"/>
  <line x1="78" y1="105" x2="85" y2="105" stroke="#7c3aed" stroke-width="2"/>
  <line x1="115" y1="105" x2="122" y2="105" stroke="#7c3aed" stroke-width="2"/>
  <line x1="84" y1="89" x2="89" y2="94" stroke="#7c3aed" stroke-width="1.5"/>
  <line x1="111" y1="116" x2="116" y2="121" stroke="#7c3aed" stroke-width="1.5"/>
  <line x1="116" y1="89" x2="111" y2="94" stroke="#7c3aed" stroke-width="1.5"/>
  <line x1="89" y1="116" x2="84" y2="121" stroke="#7c3aed" stroke-width="1.5"/>
  <line x1="100" y1="105" x2="115" y2="92" stroke="#ef4444" stroke-width="2" stroke-linecap="round"/>
  <circle cx="100" cy="105" r="3" fill="#7c3aed"/>
  <circle cx="80" cy="148" r="6" fill="#ef4444" stroke="#dc2626" stroke-width="1"/>
  <circle cx="100" cy="148" r="6" fill="#111" stroke="#555" stroke-width="1"/>
  <circle cx="120" cy="148" r="6" fill="#1d4ed8" stroke="#1e40af" stroke-width="1"/>
  <text x="100" y="192" font-family="Arial,sans-serif" font-size="10" fill="#a78bfa" text-anchor="middle" font-weight="bold">Digital Multimeter</text>
</svg>
