<svg xmlns="http://www.w3.org/2000/svg" viewBox="0 0 200 200" width="200" height="200">
  <rect width="200" height="200" fill="#1a2332"/>
  <rect x="20" y="40" width="160" height="120" rx="5" fill="#1a3a5c" stroke="#0891b2" stroke-width="2"/>
  <rect x="35" y="55" width="70" height="50" rx="4" fill="#1e3a5f" stroke="#2563eb" stroke-width="1.5"/>
  <rect x="42" y="62" width="56" height="36" rx="2" fill="#0f2744"/>
  <text x="70" y="84" font-family="monospace" font-size="8" fill="#06b6d4" text-anchor="middle">RELAY</text>
  <rect x="115" y="55" width="50" height="50" rx="4" fill="#111" stroke="#333" stroke-width="1.5"/>
  <line x1="125" y1="65" x2="155" y2="65" stroke="#888" stroke-width="2"/>
  <line x1="125" y1="75" x2="155" y2="75" stroke="#888" stroke-width="2"/>
  <line x1="125" y1="85" x2="155" y2="85" stroke="#888" stroke-width="2"/>
  <circle cx="70" cy="55" r="5" fill="#22c55e" opacity="0.9"/>
  <circle cx="70" cy="55" r="7" fill="none" stroke="#22c55e" stroke-width="1" opacity="0.4"/>
  <rect x="30" y="120" width="140" height="10" rx="2" fill="#111" stroke="#333" stroke-width="1"/>
  <line x1="45" y1="120" x2="45" y2="130" stroke="#ef4444" stroke-width="2"/>
  <line x1="60" y1="120" x2="60" y2="130" stroke="#888" stroke-width="2"/>
  <line x1="75" y1="120" x2="75" y2="130" stroke="#3b82f6" stroke-width="2"/>
  <line x1="125" y1="120" x2="125" y2="130" stroke="#888" stroke-width="2"/>
  <line x1="140" y1="120" x2="140" y2="130" stroke="#888" stroke-width="2"/>
  <line x1="155" y1="120" x2="155" y2="130" stroke="#888" stroke-width="2"/>
  <text x="100" y="192" font-family="Arial,sans-serif" font-size="10" fill="#06b6d4" text-anchor="middle" font-weight="bold">5V Relay Module</text>
</svg>
