<svg xmlns="http://www.w3.org/2000/svg" viewBox="0 0 200 200" width="200" height="200">
  <rect width="200" height="200" fill="#1a2332"/>
  <rect x="30" y="45" width="140" height="110" rx="4" fill="#1a5c2a" stroke="#2d8a3e" stroke-width="2"/>
  <rect x="75" y="65" width="50" height="50" rx="3" fill="#222" stroke="#444" stroke-width="1.5"/>
  <text x="100" y="88" font-family="monospace" font-size="7" fill="#22c55e" text-anchor="middle">RP2040</text>
  <text x="100" y="100" font-family="monospace" font-size="6" fill="#94a3b8" text-anchor="middle">133MHz</text>
  <rect x="30" y="50" width="10" height="90" rx="2" fill="#111" stroke="#333" stroke-width="1"/>
  <line x1="30" y1="58" x2="40" y2="58" stroke="#888" stroke-width="1.5"/>
  <line x1="30" y1="65" x2="40" y2="65" stroke="#888" stroke-width="1.5"/>
  <line x1="30" y1="72" x2="40" y2="72" stroke="#888" stroke-width="1.5"/>
  <line x1="30" y1="79" x2="40" y2="79" stroke="#888" stroke-width="1.5"/>
  <line x1="30" y1="86" x2="40" y2="86" stroke="#888" stroke-width="1.5"/>
  <line x1="30" y1="93" x2="40" y2="93" stroke="#888" stroke-width="1.5"/>
  <line x1="30" y1="100" x2="40" y2="100" stroke="#888" stroke-width="1.5"/>
  <line x1="30" y1="107" x2="40" y2="107" stroke="#888" stroke-width="1.5"/>
  <line x1="30" y1="114" x2="40" y2="114" stroke="#888" stroke-width="1.5"/>
  <line x1="30" y1="121" x2="40" y2="121" stroke="#888" stroke-width="1.5"/>
  <rect x="160" y="50" width="10" height="90" rx="2" fill="#111" stroke="#333" stroke-width="1"/>
  <line x1="160" y1="58" x2="170" y2="58" stroke="#888" stroke-width="1.5"/>
  <line x1="160" y1="65" x2="170" y2="65" stroke="#888" stroke-width="1.5"/>
  <line x1="160" y1="72" x2="170" y2="72" stroke="#888" stroke-width="1.5"/>
  <line x1="160" y1="79" x2="170" y2="79" stroke="#888" stroke-width="1.5"/>
  <line x1="160" y1="86" x2="170" y2="86" stroke="#888" stroke-width="1.5"/>
  <line x1="160" y1="93" x2="170" y2="93" stroke="#888" stroke-width="1.5"/>
  <line x1="160" y1="100" x2="170" y2="100" stroke="#888" stroke-width="1.5"/>
  <line x1="160" y1="107" x2="170" y2="107" stroke="#888" stroke-width="1.5"/>
  <rect x="82" y="45" width="36" height="10" rx="3" fill="#555" stroke="#777" stroke-width="1"/>
  <rect x="87" y="47" width="26" height="6" rx="2" fill="#333"/>
  <circle cx="155" cy="60" r="3" fill="#22c55e" opacity="0.9"/>
  <text x="100" y="192" font-family="Arial,sans-serif" font-size="10" fill="#22c55e" text-anchor="middle" font-weight="bold">Raspberry Pi Pico</text>
</svg>
